<svg xmlns="http://www.w3.org/2000/svg" width="1em" height="1em" viewBox="0 0 32 32"><g fill="none"><path fill="url(#f1584id0)" d="M25.064 20.718a3.06 3.06 0 0 0 1.686-.576v1.736c0 1.665-.992 3.149-2.5 3.764a7.6 7.6 0 0 0 .645-2.2z"/><path fill="url(#f1584id1)" d="M25.064 20.718a3.06 3.06 0 0 0 1.686-.576v1.736c0 1.665-.992 3.149-2.5 3.764a7.6 7.6 0 0 0 .645-2.2z"/><path fill="url(#f1584id2)" d="M6.937 20.718a3.06 3.06 0 0 1-1.687-.576v1.736c0 1.665.992 3.149 2.5 3.764a7.6 7.6 0 0 1-.645-2.2z"/><path fill="url(#f1584id3)" d="M6.937 20.718a3.06 3.06 0 0 1-1.687-.576v1.736c0 1.665.992 3.149 2.5 3.764a7.6 7.6 0 0 1-.645-2.2z"/><g filter="url(#f1584ids)"><path fill="url(#f1584id4)" d="M7.004 23.542a7.3 7.3 0 0 0 7.245 6.35h3.517a7.3 7.3 0 0 0 7.245-6.35c.22-3.512.44-7.01.604-10.52c-.02-1.43-1.147-2.61-2.57-2.67h-2.612a4.52 4.52 0 0 1-4.123-2.69a1.24 1.24 0 0 0-1.147-.78H12.79c-3.441 0-6.23 2.82-6.23 6.3c0 3.47.217 6.882.444 10.36"/></g><path fill="url(#f1584id19)" d="M7.004 23.542a7.3 7.3 0 0 0 7.245 6.35h3.517a7.3 7.3 0 0 0 7.245-6.35c.22-3.512.44-7.01.604-10.52c-.02-1.43-1.147-2.61-2.57-2.67h-2.612a4.52 4.52 0 0 1-4.123-2.69a1.24 1.24 0 0 0-1.147-.78H12.79c-3.441 0-6.23 2.82-6.23 6.3c0 3.47.217 6.882.444 10.36"/><path fill="url(#f1584id5)" d="M7.004 23.542a7.3 7.3 0 0 0 7.245 6.35h3.517a7.3 7.3 0 0 0 7.245-6.35c.22-3.512.44-7.01.604-10.52c-.02-1.43-1.147-2.61-2.57-2.67h-2.612a4.52 4.52 0 0 1-4.123-2.69a1.24 1.24 0 0 0-1.147-.78H12.79c-3.441 0-6.23 2.82-6.23 6.3c0 3.47.217 6.882.444 10.36"/><path fill="url(#f1584id6)" d="M7.004 23.542a7.3 7.3 0 0 0 7.245 6.35h3.517a7.3 7.3 0 0 0 7.245-6.35c.22-3.512.44-7.01.604-10.52c-.02-1.43-1.147-2.61-2.57-2.67h-2.612a4.52 4.52 0 0 1-4.123-2.69a1.24 1.24 0 0 0-1.147-.78H12.79c-3.441 0-6.23 2.82-6.23 6.3c0 3.47.217 6.882.444 10.36"/><path fill="url(#f1584id7)" d="M7.004 23.542a7.3 7.3 0 0 0 7.245 6.35h3.517a7.3 7.3 0 0 0 7.245-6.35c.22-3.512.44-7.01.604-10.52c-.02-1.43-1.147-2.61-2.57-2.67h-2.612a4.52 4.52 0 0 1-4.123-2.69a1.24 1.24 0 0 0-1.147-.78H12.79c-3.441 0-6.23 2.82-6.23 6.3c0 3.47.217 6.882.444 10.36"/><g filter="url(#f1584idt)"><path fill="#ee9020" d="m15.094 17.42l-1.184 3.427c-.202.705.283 1.41.97 1.41h1.467c.687 0 1.173-.715.97-1.41l-.99-3.427c-.213-.76-1.01-.76-1.233 0"/></g><g filter="url(#f1584idu)"><path fill="url(#f1584id1a)" d="m15.287 17.055l-.99 3.427c-.203.705.282 1.41.97 1.41h1.466c.688 0 1.173-.715.97-1.41l-.99-3.427c-.213-.76-1.203-.76-1.426 0"/><path fill="url(#f1584id1b)" d="m15.287 17.055l-.99 3.427c-.203.705.282 1.41.97 1.41h1.466c.688 0 1.173-.715.97-1.41l-.99-3.427c-.213-.76-1.203-.76-1.426 0"/><path fill="url(#f1584id1c)" d="m15.287 17.055l-.99 3.427c-.203.705.282 1.41.97 1.41h1.466c.688 0 1.173-.715.97-1.41l-.99-3.427c-.213-.76-1.203-.76-1.426 0"/><path fill="url(#f1584id1d)" d="m15.287 17.055l-.99 3.427c-.203.705.282 1.41.97 1.41h1.466c.688 0 1.173-.715.97-1.41l-.99-3.427c-.213-.76-1.203-.76-1.426 0"/></g><g filter="url(#f1584idv)"><path stroke="url(#f1584id8)" stroke-width="0.15" d="M13.452 23.109h-.001a.36.36 0 0 0-.429.074a.33.33 0 0 0-.036.424A3.6 3.6 0 0 0 16 25.217a3.6 3.6 0 0 0 3.015-1.61a.334.334 0 0 0-.037-.428a.36.36 0 0 0-.429-.07a5.5 5.5 0 0 1-2.549.604c-.934 0-1.812-.22-2.548-.604Z"/></g><path fill="url(#f1584id9)" d="M16 23.788a5.6 5.6 0 0 1-2.583-.613c-.255-.13-.53.158-.369.39A3.53 3.53 0 0 0 16 25.142a3.53 3.53 0 0 0 2.952-1.577c.16-.241-.114-.52-.369-.39a5.6 5.6 0 0 1-2.583.613"/><g filter="url(#f1584idw)"><path fill="url(#f1584id1e)" d="M25.052 6.002c.959.33 1.819 1 2.363 1.96a4.42 4.42 0 0 1-.198 4.71a2.9 2.9 0 0 0-.504 1.63v2.215a3.25 3.25 0 0 0-1.244-.5l.146-2.995c-.02-1.43-1.147-2.61-2.57-2.67h-2.611a4.52 4.52 0 0 1-4.124-2.69a1.24 1.24 0 0 0-1.147-.78H12.79c-3.441 0-6.23 2.82-6.23 6.3l.057 2.867c-.473.07-.968.227-1.342.491v-2.238c0-.58-.178-1.15-.505-1.63a4.46 4.46 0 0 1-.267-4.56a4.37 4.37 0 0 1 2.423-2.1a5 5 0 0 0 2.58-2.07a4.34 4.34 0 0 1 3.68-2.05c.603 0 1.176.13 1.71.35c.712.31 1.513.31 2.225 0a4.4 4.4 0 0 1 1.7-.35c1.573 0 2.947.85 3.709 2.11c.573.95 1.473 1.64 2.521 2"/><path fill="url(#f1584ida)" d="M25.052 6.002c.959.33 1.819 1 2.363 1.96a4.42 4.42 0 0 1-.198 4.71a2.9 2.9 0 0 0-.504 1.63v2.215a3.25 3.25 0 0 0-1.244-.5l.146-2.995c-.02-1.43-1.147-2.61-2.57-2.67h-2.611a4.52 4.52 0 0 1-4.124-2.69a1.24 1.24 0 0 0-1.147-.78H12.79c-3.441 0-6.23 2.82-6.23 6.3l.057 2.867c-.473.07-.968.227-1.342.491v-2.238c0-.58-.178-1.15-.505-1.63a4.46 4.46 0 0 1-.267-4.56a4.37 4.37 0 0 1 2.423-2.1a5 5 0 0 0 2.58-2.07a4.34 4.34 0 0 1 3.68-2.05c.603 0 1.176.13 1.71.35c.712.31 1.513.31 2.225 0a4.4 4.4 0 0 1 1.7-.35c1.573 0 2.947.85 3.709 2.11c.573.95 1.473 1.64 2.521 2"/><path fill="url(#f1584idb)" d="M25.052 6.002c.959.33 1.819 1 2.363 1.96a4.42 4.42 0 0 1-.198 4.71a2.9 2.9 0 0 0-.504 1.63v2.215a3.25 3.25 0 0 0-1.244-.5l.146-2.995c-.02-1.43-1.147-2.61-2.57-2.67h-2.611a4.52 4.52 0 0 1-4.124-2.69a1.24 1.24 0 0 0-1.147-.78H12.79c-3.441 0-6.23 2.82-6.23 6.3l.057 2.867c-.473.07-.968.227-1.342.491v-2.238c0-.58-.178-1.15-.505-1.63a4.46 4.46 0 0 1-.267-4.56a4.37 4.37 0 0 1 2.423-2.1a5 5 0 0 0 2.58-2.07a4.34 4.34 0 0 1 3.68-2.05c.603 0 1.176.13 1.71.35c.712.31 1.513.31 2.225 0a4.4 4.4 0 0 1 1.7-.35c1.573 0 2.947.85 3.709 2.11c.573.95 1.473 1.64 2.521 2"/><path fill="url(#f1584idc)" d="M25.052 6.002c.959.33 1.819 1 2.363 1.96a4.42 4.42 0 0 1-.198 4.71a2.9 2.9 0 0 0-.504 1.63v2.215a3.25 3.25 0 0 0-1.244-.5l.146-2.995c-.02-1.43-1.147-2.61-2.57-2.67h-2.611a4.52 4.52 0 0 1-4.124-2.69a1.24 1.24 0 0 0-1.147-.78H12.79c-3.441 0-6.23 2.82-6.23 6.3l.057 2.867c-.473.07-.968.227-1.342.491v-2.238c0-.58-.178-1.15-.505-1.63a4.46 4.46 0 0 1-.267-4.56a4.37 4.37 0 0 1 2.423-2.1a5 5 0 0 0 2.58-2.07a4.34 4.34 0 0 1 3.68-2.05c.603 0 1.176.13 1.71.35c.712.31 1.513.31 2.225 0a4.4 4.4 0 0 1 1.7-.35c1.573 0 2.947.85 3.709 2.11c.573.95 1.473 1.64 2.521 2"/><path fill="url(#f1584idd)" d="M25.052 6.002c.959.33 1.819 1 2.363 1.96a4.42 4.42 0 0 1-.198 4.71a2.9 2.9 0 0 0-.504 1.63v2.215a3.25 3.25 0 0 0-1.244-.5l.146-2.995c-.02-1.43-1.147-2.61-2.57-2.67h-2.611a4.52 4.52 0 0 1-4.124-2.69a1.24 1.24 0 0 0-1.147-.78H12.79c-3.441 0-6.23 2.82-6.23 6.3l.057 2.867c-.473.07-.968.227-1.342.491v-2.238c0-.58-.178-1.15-.505-1.63a4.46 4.46 0 0 1-.267-4.56a4.37 4.37 0 0 1 2.423-2.1a5 5 0 0 0 2.58-2.07a4.34 4.34 0 0 1 3.68-2.05c.603 0 1.176.13 1.71.35c.712.31 1.513.31 2.225 0a4.4 4.4 0 0 1 1.7-.35c1.573 0 2.947.85 3.709 2.11c.573.95 1.473 1.64 2.521 2"/></g><g filter="url(#f1584idx)"><path fill="#c05029" d="M22.96 12.832c-.327-.284-.707-.586-1.282-.767c-.567-.179-1.278-.226-2.26-.106a.517.517 0 0 0 .125 1.026c.897-.11 1.446-.053 1.824.066c.37.117.62.305.913.56a.517.517 0 1 0 .68-.779"/></g><g filter="url(#f1584idy)"><path fill="#c05029" d="M9.64 12.629a5.17 5.17 0 0 1 3.242-.67a.517.517 0 0 1-.125 1.026a4.14 4.14 0 0 0-2.585.531a3 3 0 0 0-.171.112l-.005.003a.517.517 0 0 1-.633-.817z"/></g><g filter="url(#f1584idz)"><path fill="url(#f1584ide)" d="M16.433 7.918a5 5 0 0 1-.123-.256a1.24 1.24 0 0 0-1.147-.78H12.79c-3.441 0-6.23 2.82-6.23 6.3v.513c-.634-.482-1.431-1.5-1.431-3.146c0-1.999 1.457-3.009 2.387-3.653c.263-.182.483-.335.617-.472l.185-.196c.652-.69 1.813-1.922 3.84-2.46c1.3-.345 2.62-.349 3.512-.269c.47.042.803.45.803.923v3.47z"/><path fill="url(#f1584idf)" d="M16.433 7.918a5 5 0 0 1-.123-.256a1.24 1.24 0 0 0-1.147-.78H12.79c-3.441 0-6.23 2.82-6.23 6.3v.513c-.634-.482-1.431-1.5-1.431-3.146c0-1.999 1.457-3.009 2.387-3.653c.263-.182.483-.335.617-.472l.185-.196c.652-.69 1.813-1.922 3.84-2.46c1.3-.345 2.62-.349 3.512-.269c.47.042.803.45.803.923v3.47z"/></g><g filter="url(#f1584id10)"><path fill="url(#f1584idg)" d="m25.719 14.205l-.055-1.177c-.02-1.424-1.196-2.598-2.62-2.658h-2.61a4.51 4.51 0 0 1-3.96-2.348s-.382-.885-.466-2.18c-.066-1 .84-1.718 1.834-1.587c2.066.274 4.934.919 6.905 2.205c3.253 2.121 2.683 5.944.971 7.745"/><path fill="url(#f1584idh)" d="m25.719 14.205l-.055-1.177c-.02-1.424-1.196-2.598-2.62-2.658h-2.61a4.51 4.51 0 0 1-3.96-2.348s-.382-.885-.466-2.18c-.066-1 .84-1.718 1.834-1.587c2.066.274 4.934.919 6.905 2.205c3.253 2.121 2.683 5.944.971 7.745"/><path fill="url(#f1584idi)" d="m25.719 14.205l-.055-1.177c-.02-1.424-1.196-2.598-2.62-2.658h-2.61a4.51 4.51 0 0 1-3.96-2.348s-.382-.885-.466-2.18c-.066-1 .84-1.718 1.834-1.587c2.066.274 4.934.919 6.905 2.205c3.253 2.121 2.683 5.944.971 7.745"/><path fill="url(#f1584idj)" d="m25.719 14.205l-.055-1.177c-.02-1.424-1.196-2.598-2.62-2.658h-2.61a4.51 4.51 0 0 1-3.96-2.348s-.382-.885-.466-2.18c-.066-1 .84-1.718 1.834-1.587c2.066.274 4.934.919 6.905 2.205c3.253 2.121 2.683 5.944.971 7.745"/><path fill="url(#f1584idk)" d="m25.719 14.205l-.055-1.177c-.02-1.424-1.196-2.598-2.62-2.658h-2.61a4.51 4.51 0 0 1-3.96-2.348s-.382-.885-.466-2.18c-.066-1 .84-1.718 1.834-1.587c2.066.274 4.934.919 6.905 2.205c3.253 2.121 2.683 5.944.971 7.745"/></g><path fill="#fff" d="M20.458 15.283c1.217 0 2.246.84 2.526 1.974a.51.51 0 0 1-.5.635h-4.159a.43.43 0 0 1-.424-.506a2.606 2.606 0 0 1 2.557-2.103"/><path fill="url(#f1584idl)" d="M20.072 15.79a1.664 1.664 0 0 1 1.603 2.102h-3.214a1.7 1.7 0 0 1-.06-.438a1.67 1.67 0 0 1 1.671-1.664"/><path fill="#000" d="M19.12 17.454c0-.53.423-.953.952-.953c.53 0 .953.423.953.953a.94.94 0 0 1-.106.438h-1.686a.86.86 0 0 1-.114-.438"/><g filter="url(#f1584id11)"><path fill="#c7a7a3" d="M19.95 16.142c.118.158-.13.351-.411.562c-.282.21-.491.359-.61.2c-.118-.158.014-.457.296-.668c.282-.21.606-.253.725-.094"/><path fill="url(#f1584idm)" d="M19.95 16.142c.118.158-.13.351-.411.562c-.282.21-.491.359-.61.2c-.118-.158.014-.457.296-.668c.282-.21.606-.253.725-.094"/></g><g filter="url(#f1584id12)"><path fill="url(#f1584id1f)" d="M21.554 17.235a1.57 1.57 0 0 0-.431-.863l-.485.532l.219.425z"/></g><path fill="#fff" d="M11.542 15.283c-1.217 0-2.246.84-2.526 1.974a.51.51 0 0 0 .5.635h4.16a.43.43 0 0 0 .423-.506a2.61 2.61 0 0 0-2.557-2.103"/><path fill="url(#f1584idn)" d="M11.928 15.79a1.664 1.664 0 0 0-1.603 2.102h3.214q.059-.213.06-.438a1.675 1.675 0 0 0-1.67-1.664"/><path fill="#000" d="M12.881 17.454a.95.95 0 0 0-.953-.953a.95.95 0 0 0-.953.953c0 .159.038.31.106.438h1.687a.95.95 0 0 0 .113-.438"/><g filter="url(#f1584id13)"><path fill="url(#f1584id1g)" d="M13.448 17.258c0-.537-.437-.896-.555-1.004l-.538.52l.331.673z"/></g><g filter="url(#f1584id14)"><ellipse cx="11.426" cy="16.501" fill="#c7a7a3" fill-opacity="0.9" rx=".726" ry=".368" transform="rotate(-27.914 11.426 16.5)"/><ellipse cx="11.426" cy="16.501" fill="url(#f1584ido)" rx=".726" ry=".368" transform="rotate(-27.914 11.426 16.5)"/></g><path fill="url(#f1584id1h)" d="M25.177 20.887c.122-1.984.24-3.965.344-5.95a3 3 0 0 1-.344 5.95"/><path fill="url(#f1584idp)" d="M25.177 20.887c.122-1.984.24-3.965.344-5.95a3 3 0 0 1-.344 5.95"/><path fill="url(#f1584idq)" d="M25.177 20.887c.122-1.984.24-3.965.344-5.95a3 3 0 0 1-.344 5.95"/><path fill="url(#f1584id1i)" d="M6.577 14.922a3 3 0 0 0 .258 5.966c-.12-1.992-.22-3.973-.258-5.966"/><path fill="url(#f1584idr)" d="M6.577 14.922a3 3 0 0 0 .258 5.966c-.12-1.992-.22-3.973-.258-5.966"/><g filter="url(#f1584id15)"><path fill="#dd8224" d="M6.609 16.154a1.782 1.782 0 0 0 .155 3.504a146 146 0 0 1-.155-3.504"/></g><g filter="url(#f1584id16)"><path fill="#ffc837" d="M25.25 19.674q.11-1.774.207-3.549a1.781 1.781 0 0 1-.206 3.549"/></g><g filter="url(#f1584id17)"><path stroke="#c96953" stroke-linecap="round" stroke-width="0.25" d="M9.71 13.15c.48-.344 1.674-.948 3.087-.71"/></g><g filter="url(#f1584id18)"><path stroke="#c96953" stroke-linecap="round" stroke-width="0.25" d="M22.64 13.064c-.48-.343-1.674-.948-3.087-.71"/></g><defs><radialGradient id="f1584id0" cx="0" cy="0" r="1" gradientTransform="rotate(103.679 5.258 20.422)scale(6.07867 7.22099)" gradientUnits="userSpaceOnUse"><stop offset=".28" stop-color="#ffc135"/><stop offset="1" stop-color="#e4803e"/></radialGradient><radialGradient id="f1584id1" cx="0" cy="0" r="1" gradientTransform="matrix(.54687 .75 -.63714 .46458 24.953 20.643)" gradientUnits="userSpaceOnUse"><stop stop-color="#e18c2a"/><stop offset="1" stop-color="#e18c2a" stop-opacity="0"/></radialGradient><radialGradient id="f1584id2" cx="0" cy="0" r="1" gradientTransform="matrix(2.375 5 -2.27273 1.07954 5.656 20.361)" gradientUnits="userSpaceOnUse"><stop stop-color="#d57a26"/><stop offset="1" stop-color="#d06a3c"/></radialGradient><radialGradient id="f1584id3" cx="0" cy="0" r="1" gradientTransform="matrix(.59375 1.85937 -1.63106 .52084 6.89 20.346)" gradientUnits="userSpaceOnUse"><stop offset=".263" stop-color="#be691e"/><stop offset=".977" stop-color="#be691e" stop-opacity="0"/></radialGradient><radialGradient id="f1584id4" cx="0" cy="0" r="1" gradientTransform="matrix(-9.74687 0 0 -17.2421 21.235 18.387)" gradientUnits="userSpaceOnUse"><stop stop-color="#ffe846"/><stop offset="1" stop-color="#f5a129"/></radialGradient><radialGradient id="f1584id5" cx="0" cy="0" r="1" gradientTransform="matrix(-2.131 24.16843 -20.01435 -1.76472 18.948 7.362)" gradientUnits="userSpaceOnUse"><stop offset=".778" stop-color="#d77869" stop-opacity="0"/><stop offset=".971" stop-color="#d77869"/></radialGradient><radialGradient id="f1584id6" cx="0" cy="0" r="1" gradientTransform="matrix(0 -2.5 3.09375 0 20.563 16.299)" gradientUnits="userSpaceOnUse"><stop offset=".325" stop-color="#ffbd38"/><stop offset="1" stop-color="#ffbd38" stop-opacity="0"/></radialGradient><radialGradient id="f1584id7" cx="0" cy="0" r="1" gradientTransform="matrix(-.03125 -2.5 2.72059 -.034 11.75 16.486)" gradientUnits="userSpaceOnUse"><stop offset=".378" stop-color="#ef9330"/><stop offset="1" stop-color="#ef9330" stop-opacity="0"/></radialGradient><radialGradient id="f1584id8" cx="0" cy="0" r="1" gradientTransform="matrix(.64725 -1.1549 3.3608 1.88353 13.9 24.52)" gradientUnits="userSpaceOnUse"><stop stop-color="#ffb534"/><stop offset="1" stop-color="#ffb534" stop-opacity="0"/></radialGradient><radialGradient id="f1584id9" cx="0" cy="0" r="1" gradientTransform="matrix(0 -1.34375 5.40625 0 16 24.986)" gradientUnits="userSpaceOnUse"><stop stop-color="#89014e"/><stop offset="1" stop-color="#87004d"/></radialGradient><radialGradient id="f1584ida" cx="0" cy="0" r="1" gradientTransform="matrix(0 -6.77276 12 0 6.25 15.438)" gradientUnits="userSpaceOnUse"><stop stop-color="#c98537"/><stop offset="1" stop-color="#c98537" stop-opacity="0"/></radialGradient><radialGradient id="f1584idb" cx="0" cy="0" r="1" gradientTransform="matrix(0 -6.77276 12 0 25.063 15.438)" gradientUnits="userSpaceOnUse"><stop stop-color="#ffb52a"/><stop offset="1" stop-color="#ffb52a" stop-opacity="0"/></radialGradient><radialGradient id="f1584idc" cx="0" cy="0" r="1" gradientTransform="rotate(-159.121 12.172 -.311)scale(6.48857 3.45559)" gradientUnits="userSpaceOnUse"><stop stop-color="#ffe639"/><stop offset="1" stop-color="#ffe639" stop-opacity="0"/></radialGradient><radialGradient id="f1584idd" cx="0" cy="0" r="1" gradientTransform="matrix(1.68751 2.75 -6.3677 3.90748 14.312 .768)" gradientUnits="userSpaceOnUse"><stop offset=".287" stop-color="#f3c130"/><stop offset="1" stop-color="#f3c130" stop-opacity="0"/></radialGradient><radialGradient id="f1584ide" cx="0" cy="0" r="1" gradientTransform="matrix(-7.09766 2.56091 -.71276 -1.97545 16.473 3.456)" gradientUnits="userSpaceOnUse"><stop stop-color="#ffdc2b"/><stop offset="1" stop-color="#ffdc2b" stop-opacity="0"/></radialGradient><radialGradient id="f1584idf" cx="0" cy="0" r="1" gradientTransform="matrix(6 -9.5 10.52499 6.64735 5.875 12.33)" gradientUnits="userSpaceOnUse"><stop offset=".093" stop-color="#d67227"/><stop offset=".233" stop-color="#ef8a23"/><stop offset="1" stop-color="#ef8a23" stop-opacity="0"/></radialGradient><radialGradient id="f1584idg" cx="0" cy="0" r="1" gradientTransform="matrix(6.3125 1.49307 -.57258 2.42079 22.75 5.62)" gradientUnits="userSpaceOnUse"><stop stop-color="#ffe137"/><stop offset="1" stop-color="#ffe137" stop-opacity="0"/></radialGradient><radialGradient id="f1584idh" cx="0" cy="0" r="1" gradientTransform="rotate(-120.119 16.872 -.26)scale(7.98306 4.45209)" gradientUnits="userSpaceOnUse"><stop stop-color="#eb8f29"/><stop offset="1" stop-color="#eb8f29" stop-opacity="0"/></radialGradient><radialGradient id="f1584idi" cx="0" cy="0" r="1" gradientTransform="matrix(-2.43747 -4.10598 2.94094 -1.74586 24.406 13.645)" gradientUnits="userSpaceOnUse"><stop offset=".394" stop-color="#e48421"/><stop offset="1" stop-color="#e48421" stop-opacity="0"/></radialGradient><radialGradient id="f1584idj" cx="0" cy="0" r="1" gradientTransform="rotate(166.509 12.15 4.176)scale(9.20011 9.94567)" gradientUnits="userSpaceOnUse"><stop offset=".735" stop-color="#f29415" stop-opacity="0"/><stop offset="1" stop-color="#f29415"/></radialGradient><radialGradient id="f1584idk" cx="0" cy="0" r="1" gradientTransform="matrix(-.21876 .71543 -3.27084 -1.00012 22.438 5.168)" gradientUnits="userSpaceOnUse"><stop offset=".461" stop-color="#ffce3c"/><stop offset="1" stop-color="#ffce3c" stop-opacity="0"/></radialGradient><radialGradient id="f1584idl" cx="0" cy="0" r="1" gradientTransform="matrix(0 1.51263 -2.40601 0 20.068 16.68)" gradientUnits="userSpaceOnUse"><stop offset=".802" stop-color="#925c51"/><stop offset="1" stop-color="#694b43"/><stop offset="1" stop-color="#804d49"/><stop offset="1" stop-color="#85534d"/></radialGradient><radialGradient id="f1584idm" cx="0" cy="0" r="1" gradientTransform="rotate(-127.812 13.944 3.608)scale(.70528 .97101)" gradientUnits="userSpaceOnUse"><stop offset=".766" stop-color="#ffe6e2" stop-opacity="0"/><stop offset=".966" stop-color="#ffe6e2"/></radialGradient><radialGradient id="f1584idn" cx="0" cy="0" r="1" gradientTransform="matrix(0 1.51271 -2.40614 0 11.932 16.68)" gradientUnits="userSpaceOnUse"><stop offset=".802" stop-color="#925c51"/><stop offset="1" stop-color="#694b43"/><stop offset="1" stop-color="#804d49"/><stop offset="1" stop-color="#85534d"/></radialGradient><radialGradient id="f1584ido" cx="0" cy="0" r="1" gradientTransform="rotate(-90.897 14.11 2.934)scale(.92129 1.10743)" gradientUnits="userSpaceOnUse"><stop offset=".766" stop-color="#ffe6e2" stop-opacity="0"/><stop offset=".966" stop-color="#ffe6e2"/></radialGradient><radialGradient id="f1584idp" cx="0" cy="0" r="1" gradientTransform="rotate(74.348 1.29 24.579)scale(4.34346 4.144)" gradientUnits="userSpaceOnUse"><stop offset=".856" stop-color="#e1943d" stop-opacity="0"/><stop offset="1" stop-color="#e08f2e"/></radialGradient><radialGradient id="f1584idq" cx="0" cy="0" r="1" gradientTransform="matrix(1.46875 -2.01563 1.6895 1.2311 25.281 17.72)" gradientUnits="userSpaceOnUse"><stop offset=".664" stop-color="#ffbd22"/><stop offset="1" stop-color="#ffbd22" stop-opacity="0"/></radialGradient><radialGradient id="f1584idr" cx="0" cy="0" r="1" gradientTransform="rotate(101.248 -3.89 11.048)scale(3.94637 3.87964)" gradientUnits="userSpaceOnUse"><stop offset=".775" stop-color="#c77937" stop-opacity="0"/><stop offset="1" stop-color="#c77937"/></radialGradient><filter id="f1584ids" width="19.805" height="23.21" x="6.56" y="6.882" color-interpolation-filters="sRGB" filterUnits="userSpaceOnUse"><feFlood flood-opacity="0" result="BackgroundImageFix"/><feBlend in="SourceGraphic" in2="BackgroundImageFix" result="shape"/><feColorMatrix in="SourceAlpha" result="hardAlpha" values="0 0 0 0 0 0 0 0 0 0 0 0 0 0 0 0 0 0 127 0"/><feOffset dx=".75"/><feGaussianBlur stdDeviation=".6"/><feComposite in2="hardAlpha" k2="-1" k3="1" operator="arithmetic"/><feColorMatrix values="0 0 0 0 0.823529 0 0 0 0 0.623529 0 0 0 0 0.313726 0 0 0 1 0"/><feBlend in2="shape" result="effect1_innerShadow_1800_61"/><feColorMatrix in="SourceAlpha" result="hardAlpha" values="0 0 0 0 0 0 0 0 0 0 0 0 0 0 0 0 0 0 127 0"/><feOffset dy=".2"/><feGaussianBlur stdDeviation=".375"/><feComposite in2="hardAlpha" k2="-1" k3="1" operator="arithmetic"/><feColorMatrix values="0 0 0 0 0.980392 0 0 0 0 0.54902 0 0 0 0 0.0941176 0 0 0 1 0"/><feBlend in2="effect1_innerShadow_1800_61" result="effect2_innerShadow_1800_61"/></filter><filter id="f1584idt" width="5.5" height="7.407" x="12.864" y="15.851" color-interpolation-filters="sRGB" filterUnits="userSpaceOnUse"><feFlood flood-opacity="0" result="BackgroundImageFix"/><feBlend in="SourceGraphic" in2="BackgroundImageFix" result="shape"/><feGaussianBlur result="effect1_foregroundBlur_1800_61" stdDeviation=".5"/></filter><filter id="f1584idu" width="3.7" height="5.607" x="14.15" y="16.386" color-interpolation-filters="sRGB" filterUnits="userSpaceOnUse"><feFlood flood-opacity="0" result="BackgroundImageFix"/><feBlend in="SourceGraphic" in2="BackgroundImageFix" result="shape"/><feGaussianBlur result="effect1_foregroundBlur_1800_61" stdDeviation=".05"/></filter><filter id="f1584idv" width="6.5" height="2.5" x="12.75" y="22.892" color-interpolation-filters="sRGB" filterUnits="userSpaceOnUse"><feFlood flood-opacity="0" result="BackgroundImageFix"/><feBlend in="SourceGraphic" in2="BackgroundImageFix" result="shape"/><feGaussianBlur result="effect1_foregroundBlur_1800_61" stdDeviation=".05"/></filter><filter id="f1584idw" width="24" height="15.148" x="4" y="1.392" color-interpolation-filters="sRGB" filterUnits="userSpaceOnUse"><feFlood flood-opacity="0" result="BackgroundImageFix"/><feBlend in="SourceGraphic" in2="BackgroundImageFix" result="shape"/><feColorMatrix in="SourceAlpha" result="hardAlpha" values="0 0 0 0 0 0 0 0 0 0 0 0 0 0 0 0 0 0 127 0"/><feOffset dy="-.5"/><feGaussianBlur stdDeviation=".625"/><feComposite in2="hardAlpha" k2="-1" k3="1" operator="arithmetic"/><feColorMatrix values="0 0 0 0 0.945098 0 0 0 0 0.509804 0 0 0 0 0.0627451 0 0 0 1 0"/><feBlend in2="shape" result="effect1_innerShadow_1800_61"/><feColorMatrix in="SourceAlpha" result="hardAlpha" values="0 0 0 0 0 0 0 0 0 0 0 0 0 0 0 0 0 0 127 0"/><feOffset dy="-.2"/><feGaussianBlur stdDeviation=".2"/><feComposite in2="hardAlpha" k2="-1" k3="1" operator="arithmetic"/><feColorMatrix values="0 0 0 0 0.862745 0 0 0 0 0.486275 0 0 0 0 0.0470588 0 0 0 1 0"/><feBlend in2="effect1_innerShadow_1800_61" result="effect2_innerShadow_1800_61"/></filter><filter id="f1584idx" width="4.274" height="2.047" x="18.963" y="11.692" color-interpolation-filters="sRGB" filterUnits="userSpaceOnUse"><feFlood flood-opacity="0" result="BackgroundImageFix"/><feBlend in="SourceGraphic" in2="BackgroundImageFix" result="shape"/><feColorMatrix in="SourceAlpha" result="hardAlpha" values="0 0 0 0 0 0 0 0 0 0 0 0 0 0 0 0 0 0 127 0"/><feOffset dx=".1" dy="-.2"/><feGaussianBlur stdDeviation=".125"/><feComposite in2="hardAlpha" k2="-1" k3="1" operator="arithmetic"/><feColorMatrix values="0 0 0 0 0.603922 0 0 0 0 0.243137 0 0 0 0 0.152941 0 0 0 1 0"/><feBlend in2="shape" result="effect1_innerShadow_1800_61"/></filter><filter id="f1584idy" width="4.274" height="2.019" x="9.163" y="11.72" color-interpolation-filters="sRGB" filterUnits="userSpaceOnUse"><feFlood flood-opacity="0" result="BackgroundImageFix"/><feBlend in="SourceGraphic" in2="BackgroundImageFix" result="shape"/><feColorMatrix in="SourceAlpha" result="hardAlpha" values="0 0 0 0 0 0 0 0 0 0 0 0 0 0 0 0 0 0 127 0"/><feOffset dx=".1" dy="-.2"/><feGaussianBlur stdDeviation=".125"/><feComposite in2="hardAlpha" k2="-1" k3="1" operator="arithmetic"/><feColorMatrix values="0 0 0 0 0.603922 0 0 0 0 0.243137 0 0 0 0 0.152941 0 0 0 1 0"/><feBlend in2="shape" result="effect1_innerShadow_1800_61"/></filter><filter id="f1584idz" width="12.344" height="11.239" x="4.629" y="2.956" color-interpolation-filters="sRGB" filterUnits="userSpaceOnUse"><feFlood flood-opacity="0" result="BackgroundImageFix"/><feBlend in="SourceGraphic" in2="BackgroundImageFix" result="shape"/><feGaussianBlur result="effect1_foregroundBlur_1800_61" stdDeviation=".25"/></filter><filter id="f1584id10" width="12.094" height="10.965" x="15.504" y="3.74" color-interpolation-filters="sRGB" filterUnits="userSpaceOnUse"><feFlood flood-opacity="0" result="BackgroundImageFix"/><feBlend in="SourceGraphic" in2="BackgroundImageFix" result="shape"/><feGaussianBlur result="effect1_foregroundBlur_1800_61" stdDeviation=".25"/></filter><filter id="f1584id11" width="1.294" height="1.125" x="18.786" y="15.946" color-interpolation-filters="sRGB" filterUnits="userSpaceOnUse"><feFlood flood-opacity="0" result="BackgroundImageFix"/><feBlend in="SourceGraphic" in2="BackgroundImageFix" result="shape"/><feGaussianBlur result="effect1_foregroundBlur_1800_61" stdDeviation=".05"/></filter><filter id="f1584id12" width="1.316" height="1.357" x="20.438" y="16.172" color-interpolation-filters="sRGB" filterUnits="userSpaceOnUse"><feFlood flood-opacity="0" result="BackgroundImageFix"/><feBlend in="SourceGraphic" in2="BackgroundImageFix" result="shape"/><feGaussianBlur result="effect1_foregroundBlur_1800_61" stdDeviation=".1"/></filter><filter id="f1584id13" width="1.493" height="1.594" x="12.155" y="16.054" color-interpolation-filters="sRGB" filterUnits="userSpaceOnUse"><feFlood flood-opacity="0" result="BackgroundImageFix"/><feBlend in="SourceGraphic" in2="BackgroundImageFix" result="shape"/><feGaussianBlur result="effect1_foregroundBlur_1800_61" stdDeviation=".1"/></filter><filter id="f1584id14" width="1.529" height="1.141" x="10.661" y="15.93" color-interpolation-filters="sRGB" filterUnits="userSpaceOnUse"><feFlood flood-opacity="0" result="BackgroundImageFix"/><feBlend in="SourceGraphic" in2="BackgroundImageFix" result="shape"/><feGaussianBlur result="effect1_foregroundBlur_1800_61" stdDeviation=".05"/></filter><filter id="f1584id15" width="2.045" height="4.004" x="4.969" y="15.904" color-interpolation-filters="sRGB" filterUnits="userSpaceOnUse"><feFlood flood-opacity="0" result="BackgroundImageFix"/><feBlend in="SourceGraphic" in2="BackgroundImageFix" result="shape"/><feGaussianBlur result="effect1_foregroundBlur_1800_61" stdDeviation=".125"/></filter><filter id="f1584id16" width="2.265" height="4.049" x="25.001" y="15.875" color-interpolation-filters="sRGB" filterUnits="userSpaceOnUse"><feFlood flood-opacity="0" result="BackgroundImageFix"/><feBlend in="SourceGraphic" in2="BackgroundImageFix" result="shape"/><feGaussianBlur result="effect1_foregroundBlur_1800_61" stdDeviation=".125"/></filter><filter id="f1584id17" width="3.836" height="1.515" x="9.336" y="12.01" color-interpolation-filters="sRGB" filterUnits="userSpaceOnUse"><feFlood flood-opacity="0" result="BackgroundImageFix"/><feBlend in="SourceGraphic" in2="BackgroundImageFix" result="shape"/><feGaussianBlur result="effect1_foregroundBlur_1800_61" stdDeviation=".125"/></filter><filter id="f1584id18" width="3.836" height="1.515" x="19.178" y="11.925" color-interpolation-filters="sRGB" filterUnits="userSpaceOnUse"><feFlood flood-opacity="0" result="BackgroundImageFix"/><feBlend in="SourceGraphic" in2="BackgroundImageFix" result="shape"/><feGaussianBlur result="effect1_foregroundBlur_1800_61" stdDeviation=".125"/></filter><linearGradient id="f1584id19" x1="25.615" x2="17.5" y1="21.53" y2="21.53" gradientUnits="userSpaceOnUse"><stop stop-color="#ffd93b"/><stop offset="1" stop-color="#ffd93b" stop-opacity="0"/></linearGradient><linearGradient id="f1584id1a" x1="16" x2="17.594" y1="19.932" y2="19.932" gradientUnits="userSpaceOnUse"><stop stop-color="#ffc92f"/><stop offset="1" stop-color="#ffea47"/></linearGradient><linearGradient id="f1584id1b" x1="14" x2="16.003" y1="19.642" y2="19.753" gradientUnits="userSpaceOnUse"><stop stop-color="#f49f22"/><stop offset="1" stop-color="#e88830" stop-opacity="0"/><stop offset="1" stop-color="#f49f22" stop-opacity="0"/></linearGradient><linearGradient id="f1584id1c" x1="16" x2="16" y1="20.676" y2="22.264" gradientUnits="userSpaceOnUse"><stop stop-color="#e88830" stop-opacity="0"/><stop offset=".845" stop-color="#e88830"/></linearGradient><linearGradient id="f1584id1d" x1="16" x2="16" y1="16.485" y2="17.267" gradientUnits="userSpaceOnUse"><stop stop-color="#fac137"/><stop offset="1" stop-color="#fac137" stop-opacity="0"/></linearGradient><linearGradient id="f1584id1e" x1="26" x2="7.125" y1="7.83" y2="7.83" gradientUnits="userSpaceOnUse"><stop stop-color="#ffe235"/><stop offset="1" stop-color="#d29935"/></linearGradient><linearGradient id="f1584id1f" x1="21.519" x2="20.934" y1="16.78" y2="17.14" gradientUnits="userSpaceOnUse"><stop stop-color="#b4948d"/><stop offset="1" stop-color="#b4948d" stop-opacity="0"/></linearGradient><linearGradient id="f1584id1g" x1="13.319" x2="12.734" y1="16.78" y2="17.14" gradientUnits="userSpaceOnUse"><stop stop-color="#b4948d"/><stop offset="1" stop-color="#b4948d" stop-opacity="0"/></linearGradient><linearGradient id="f1584id1h" x1="28" x2="25.75" y1="16.83" y2="20.887" gradientUnits="userSpaceOnUse"><stop stop-color="#ffe343"/><stop offset="1" stop-color="#ffc136"/></linearGradient><linearGradient id="f1584id1i" x1="5.094" x2="7.813" y1="18.142" y2="17.905" gradientUnits="userSpaceOnUse"><stop stop-color="#e39726"/><stop offset="1" stop-color="#d9851d"/></linearGradient></defs></g></svg>